# xmcd CD database file
#
# Track frame offsets:
#	182
#	16005
#	28212
#	41005
#	56455
#	71292
#	84652
#	99812
#	112935
#	125177
#	136577
#	150277
#	162920
#	173740
#	183995
#	196375
#	209410
#	226562
#	240272
#	253157
#	266325
#	278240
#	288882
#	301897
#	311240
#	324097
#
# Disc length: 4564 seconds
#
# Revision: 5
# Processed by: cddbd v1.5.2PL0 Copyright (c) Steve Scherf et al.
# Submitted via: CDex 1.99
#
DISCID=4c11d21a
DTITLE=Various Artist - The Chess Story 1947-1975 CD11: 1965-1966
DYEAR=1999
DGENRE=Soul/R&B
TTITLE0=James Phelps - Love Is A Five-Letter Word
TTITLE1=Little Milton - We're Gonna Make It
TTITLE2=The Radiants - Ain't No Big Thing
TTITLE3=The Knight Brothers - Temptation 'Bout To Get Me
TTITLE4=Billy Stewart - Sitting In The Park
TTITLE5=Little Milton - Who's Cheating Who?
TTITLE6=The Ramsey Lewis Trio - The In Crowd
TTITLE7=Fontella Bass - Rescue Me
TTITLE8=Billy Stewart - Summertime
TTITLE9=Bobby Moore and The Rhythm Aces - Searching For My Love
TTITLE10=Koko Taylor - Wang Dang Doodle
TTITLE11=Little Joe Blue - Dirty Work Goin' On
TTITLE12=Etta James and Sugar Pie DeSanto - In The Basement
TTITLE13=Tony Clarke - Landslide
TTITLE14=John Lee Hooker - In The Mood
TTITLE15=Big Maybelle - It's A Man's Man's World
TTITLE16=The Ramsey Lewis Trio - Wade In The Water
TTITLE17=John Lee Hooker - One Bourbon, One Scotch, One Beer
TTITLE18=Kip Anderson - Without A Woman
TTITLE19=Bobby McClure - Peak Of Love
TTITLE20=The Valentinos - Sweeter Than The Day Before
TTITLE21=Barbara and The Browns - To Know I Can't Touch
TTITLE22=Gene Chandler - I Fooled You This Time
TTITLE23=Bobby Moore and The Rhythm Aces - Try My Love Again
TTITLE24=Bo Diddley - Ooh Baby
TTITLE25=Little Milton - I Feel So Bad
EXTD=YEAR: 1999
EXTT0=
EXTT1=
EXTT2=
EXTT3=
EXTT4=
EXTT5=
EXTT6=
EXTT7=
EXTT8=
EXTT9=
EXTT10=
EXTT11=
EXTT12=
EXTT13=
EXTT14=
EXTT15=
EXTT16=
EXTT17=
EXTT18=
EXTT19=
EXTT20=
EXTT21=
EXTT22=
EXTT23=
EXTT24=
EXTT25=
PLAYORDER=
